/* XPM */
static char *_0310e4c69a64f8d9fb2dc2fcf4033a6GUSQmydxyiXLqoim[] = {
/* columns rows colors chars-per-pixel */
"100 100 70 1 ",
"  c #1C0E04",
". c #051701",
"X c #0F1602",
"o c #091D03",
"O c #0E1B09",
"+ c #1E1005",
"@ c #12110F",
"# c #1C140D",
"$ c #0F1010",
"% c #121314",
"& c #191613",
"* c #171813",
"= c #1B1A16",
"- c #161719",
"; c #17181A",
": c #1D1D18",
"> c #231206",
", c #291607",
"< c #24150A",
"1 c #2A1708",
"2 c #26190D",
"3 c #2C1808",
"4 c #241C14",
"5 c #2A1E13",
"6 c #201F1B",
"7 c #092003",
"8 c #0D2C05",
"9 c #133E08",
"0 c #182312",
"q c #1E221A",
"w c #2C2015",
"e c #24231C",
"r c #24231E",
"t c #23241D",
"y c #23271F",
"u c #26251F",
"i c #2A2118",
"p c #292219",
"a c #28221B",
"s c #2D2319",
"d c #29261F",
"f c #2E271F",
"g c #26281B",
"h c #27281C",
"j c #2A2C18",
"k c #2D2C1B",
"l c #2A2A1F",
"z c #2C2A1F",
"x c #31281F",
"c c #262520",
"v c #272620",
"b c #282721",
"n c #272922",
"m c #292823",
"M c #2B2923",
"N c #2C2A23",
"B c #2B2924",
"V c #2B2B25",
"C c #2C2B24",
"Z c #2E2C26",
"A c #2F2D28",
"S c #312B22",
"D c #322E26",
"F c #312F29",
"G c #313023",
"H c #31302A",
"J c #32302A",
"K c #35322B",
"L c #34322C",
"P c #36342E",
/* pixels */
"bbbbbbbMMMMBZZ:**:Mbbbbbbb*:vbbbbbbbbbbbbMZZd<>>,>>1<<24uuvbbvMBZZ*ZZZZZ*ZZZZZZbbCZZZZZZZZZZZZZZZZZZ",
"bbbbbbbbbMMMMZ>>&7*bbbbbbb*:vvbbvuuuubbd4>>>>>    >>++>,,+>>2vMMZZ#CZZZZ*CZZZZbbZZZCMMMMZZZZZZZZZZZZ",
"bbbbbbbu7ubbMMM>79=**bbbbb*:bvvvuuur53,>>>,,>>,>>,,,,+>+,,,>>,3dZZ%-ZZZ:%%ZZZurBZZZMMbMMZZZ7ZZZZZZZZ",
"bbbbbbb.797bb4>>.bvr&22223<4uvvbbr >3,>>,,++>>+>>>>>+>>+>,,,>>,3>2%@ZZZ=#,3325wdbMMMbuMMZZZ799ZZZZZZ",
"bbbbbbbb.997>>db>p>>>>>>>>,,>5vv4> >3>>,,++,,,,     ,,,+  +>,>>3> ><:f1,,,>++>>>>>pduMbMCZM..8MZZZZZ",
"bbbbbbbb....bdp3>>>     +>>>,33,,  >>>>,,              ,>  >,>>>,+ ,,31,>>>+     ,,,3pMMMMbMb.MZZZZZ",
"ubbuuubtb>4dp,,,,,>   >>,,,>>>,,>>>>>>,,>,               ,>+,,>>,,>,,,>>>,,,+>   >,,,,,4MMbb>>CMMMMM",
"uvuuuutbuup,,,,3,,,,3>>>>>>,,+,,>>,,>,,>     ++>>>>        +>,,>,,+ ,,>,,>>>>>>3>>,,3,,,,   >MMMMMMM",
"ubbuuttvu4>>,++     >>>,>+>>>,,3>>,>+,>+ ,>>>>   >>   >>>  ,>>,>>,>>3,,>>>>>,>>>     >>>>>>>bbbbbbbb",
"bbbbvtbd,,,>+  +>>>+   >>,,>>>,3>3, >         >>1331>>         > ,3>1>>>>,,>>  >>>>>+ >>>,,,db7bbr::",
"::::**&13>>>>4p4  bb>>> >>>>,,,> 1>>+  +>>>>>,,>>>>>>,,>>>>>+   >>1+>,,,>>>> >>>>>>KDfp2>+>31979:***",
"==%%*=3,>4:****  b=**=C>>++>>>,> ,>>+ ,,,,>>>>        >>>>,,>, +,>,  ,>>>+>>>FJJJ   >PZZCM&+.799*=b:",
"=%@*:3dCZZZZZb> **&=:ZFP,>>+ +,>,>>>  >>>>>>>   >-->   >>>>>>>  >  >>,+ +++,JJJJJJP>>PPAZZZZC.7ZZZZZ",
"B=&&3ZZZZJJZ77>ZbbbZZJPPPP,+  >>,>>> ,>,>>> >>3------3>> >>>,,, >  >>> >+,ZZZZZZZZJP7>>JJZZJJ.73ZZJJ",
"JJ&:ZZJJJPPP7ZZZZZJJJJJPPPJ,> +>> >  ,>>,>>>>---------->>>>,>>,  ,>>>> >,:ZZZZZZZZZF9PP>FJJPP77PJJJJ",
"JJ=:FJJJJPP77JJJJJJJJJJJLJF+ +,>>,> >>+>>>------------%--->>>+>> >,>>,> >*:CBMZZZBB.7PJJJbJPPPPPPJFF",
"JJ==JJJJJLPPJJJJJJJJJJJJJJ>>,+> >,>>>-------%%---------%%%----->>>,> >+,>+*&BBBBZBBB7JJJZZJJPPPJJZZZ",
"JJ:=JJJJJJJ79JJJJJJJJJJJC>33+> >,>>,&-------%%----%%--%%%%-----&,>>,> >+33>=*=BBBBBBZZCZZBZZZAJJZZZZ",
"JJ:BJJJJJJJ7.JZvvZZZZZZ<>33, >>>,> ,--------%%--%%%%----%------->  >>+> ,33>+-*BBBBZZBBZZZZZZZZZZZZZ",
"JJ:BJJJJJJp.oZZZvZZZZZ> ,3,  >,,  ,-----%%---%---%%%------------->  ,,+  ,3, >**bBBBZbrvbZZZZZBBZZZZ",
"ZZ:BJJJJZZ>.ZZZZZZZZZ>>>1,  +>,>  ,%%%%%%%%----------------------,  >,>   ,1>>>:*MBBuuZZbbZZZBBBZZZZ",
"ZZ:BJJZZZZZ>>ZZZZZZN>>>,,  >>>>  ,%%oo%%%%------------%%---------->  >>>>  ,,>>>=*MBnnBBBuuBBBnnBBBB",
"ZB:BZZZZZZZZ >ZZZZp>>>,,+ >,+>+ ,-%%o9------%%%%%%%%%%%%----%%%%---, +>>,> +,,>>>#&zgvMnnNBt7uBBBBBB",
"BB:vZZZZZZZZZ >ZZ5>>>,>> >,+>  >--%%oo------%%%%%%-%%%%%--%%%%%%---->  >+,> >>,>>>#zlrturuMt776uuMBB",
"BB:vZZZZZZZZZ  Ms>>>>  >>,+   +--->>>-----%%%%%%%%%%%%%%%%-------%%%%    +,>+  >>>>2rrtMrrrn.97tuurM",
"BM=ZZZZZZZZZZM  >>>> >>,>+    --&>>%----%%%%%%%%%%%%%%%%%%%%-------%%%    +>,>> >>>>4uMMuhtn.79MMMMM",
"MM=MMMbbMZZZZZ>>>>>>>>,>+   %-->>-----%%%%%%%%%%%%%%%%%%%%%%%%---------%   +>,>  >>>>tvvtqtM.789MMMM",
"MM=MMMbvvMBZZZ>>3> >>,>+  >%-->>7>>>>%%%%%%%%%%%%%%%%%%%%%%%%%%%--------%>  +>,>  >3>>gglttv.779MMMM",
"MM=MMMvvvMMMB3>>>>>>>>+  >#>   -77-%%%%%%%%%%%%%%%%%%%%%%%%%%%%%%---%-%--->  +>,>  >>>3jklut.777>>MM",
"MM**tvvvvMMM5>>+>,,>+   >>  -----%%%%%%%%%%%%%%%%%%%%%%%%%%%%%%%%%%-%%%---->   ,1, >++>wkzvvO.77>MMM",
"M=%*:vurvMMM3 ,+>, >  >>>----%%-%%%%%%%%%%%%%%%%%%%%%%%%%%%%%%%%%%%%--%----->   >,,>>, 3==&:t..X>MMM",
":&*%*vvvvvv3  >>,>+  >>-----%%-%%%%%%%%%%%%%%%%%%%%%%%%%%%%%%%%%%%%%%-%%----->   ,,,>>  3=****77::tv",
"==*=**vvvvu> >>,,>+ >>-%------%%%%%%%%%%%%%%%%%%%%%%%%%%%%%%%%%%%%%%%%--------,  +,,,>> >ZvZZZ>#***-",
"ZbZZ==*vvr3>>>1,>>  >--%-----%%%%%%%%%%%%%%%%%%%%%%%%%%%%%%%%%%%%%%%%%%--------,  >>,3>>>3ZbZZ>ZZZZZ",
"BBbbZb=*vp,+>+>>>  ,--------%%%%%%%%%%%%%%%%%%%%%%%%%%%%%%%%%%%%%%%%%%%%%-------,  >>++>>,xPZ>7BBBBb",
"JJBbZZM=*3  >>>,  ,--%---7-%%%%%%%%%%%%%%%%%%%%%%%%%%%%%%%%%%%%%%%%%%%%%%---%%%-->  , >>+>3PP>779bCb",
"ZZBZJJZZ*, +>>>  ,<------o%%%%%%%%%%%%%%%%%%%%%%%%%%%%%%%%%%%%%%%%%%%%%%%%----%--<,  > >+,,L5>P.7ZZZ",
"BBBZZZFZ3, 3>>> >,------o.%%%%%%%%%%%%%%%%%%%%%%%%%%%%%%%%%%%%%%%%%%%%%%%%%----%--,> >> 3,,3>JAZZZZZ",
"ZBZZZZZZ3 3>>,  ,-----797.%%%%%%%%%%%%%%%%%%%%%%%%%%%%%%%%%%%%%%%%%%%%%%%%%----%---,  ,  3,3>ZZZZZZZ",
"ZZZZZZZ5>,3>>  ,,----7997.%%%%%%%%%%%%%%%%%%%%%%%%%%%%%%%%%%%%%%%%%%%%%%%%%%----%--,,  > 3,,>ZZbZZZZ",
"BBCZZZC3>,>>>  ,-----9977.%%%%%%%%%%%%%%%%%%%%%%%%%%%%%%%%%%%%%%%%%%%%%%%%%%%-------,  >>>,,>CBuBBBB",
"BBBBBBM3>3>,  >,----79o7.%%%%%%%%%%%%%%%%%%%%%%%%%%%%%%%%%%%%%%%%%%%%%%%%%%%%------->>  ,>3,>6uuBBBB",
"BBBBBMM>,> ,  ,;----77o..%%%%%%%%%%%%%%%%%%%%%%%%%%%%%%%%%%%%%%%%%%%%%%%%%%%%%------;>  , >,>rvBBBBB",
"BBbMMMp>,>>  +>;----77..%%%%%%%%%%%%%%%%%%%%%%%%%%%%%%%%%%%%%%%%%%%%%%%%%%%%%%%------>+  >>,>5vBBBBM",
"MMMMMM3> +>  >,-----&..%%%%%%%%%%%%%%%%%%%%%%%%%%%%%%%%%%%%%%%%%%%%%%%%%%%%%%%%-%---->>  ,>>,3vMbvvM",
"::M::*3+  ,  ,,----&>>%%%%%%%%%%%%%%%%%%%%%%%%%%%%%%%%%%%%%%%%%%%%%%%%%%%%%%%%%%--%-->,  ,>>,3bbMvMM",
"****@@3+ >> >,4---&>%%%%%%%%%%%%%%%%%%%%%%%%%%%%%%%%%%%%%%%%%%%%%%%%%%%%%%%%%%%%-----4,> ,>>,3=:::=*",
"LPP=**3> >, >,:-->> %%%%%%%%%%%%%%%%%%%%%%%%%%%%%%%%%%%%%%%%%%%%%%%%%%%%%%%%%%%%%----:,> ,>+,3***&=:",
"PPPP==>> >> >,-->> %%%%%%%%%%%%%%%%%%%%%%%%%%%%%%%%%%%%%%%%%%%%%%%%%%%%%%%%%%%%%%-----,  >> >3tZZZJZ",
"JJJZZ*3> >> +,->> %%%%%%%%%%%%%%%%%%%%%%%%%%%%%%%%%%%%%%%%%%%%%%%%%%%%%%%%%%%%%%%%----,  >> >3ZZCGPP",
"JJJZZ%3> >> >,>> -%%%%%%%%%%%%%%%%%%%%%%%%%%%%$$$$$$$$%%%%%%%%%%%%%%%%%%%%%%%%%%>%->-<>  >>>>3ZZlCJJ",
"ZMMM=&3> >> >>>  -%%%%%%%%%%%%%%%%%%%%%%%%%%%%$$%$$$$%%%%%%%%%%%%%%%%%%%%%%%%%%% >->-,>+ >> >3MMMvAJ",
"MMMv:*<> +>  >, &%%%%%%%%%%%%%%%%%%%%%%%%$$$$$$$%%%$$$%%%%%%%%%%%%%%%%%%%%%%%%%% >>-%,,  >> ><vMvvMM",
"vvv:*ZB> +++>,,>-%%%%%%%%%%%%%%%%%%%%%%$$$$$$$$$%%%%$$%%%%%%$%%%%%%%%%%%%%%%%%%%% >--,, +>+ >qtdutvM",
"vv**ZZZ1> +++>>,%%%%%%%%%%%%%%%%%%%%%$%%%%$%%%%%%%%%$%%%$$$%%%$%%%%%%%%%%%%%%%%%%>%%,,,++> >1:quuudv",
"***:ZZP33>>> >>,%%%%%%%%%%%%%%%%%%%%%%%%%%%%%%%%%%%%$$%%$$%%%$$$%%%%%%%%%%%%%%%%%>%%,,> >>>33***==:v",
"*:ZZPZPD3>>>>>,,,%%%%%%%%%%%%%%%%%%%%%%%%%%%$$%%%%$$%%%%$$%%%%%%$%%%%%%%%%%%%%%%%>%, ,>>>>>3NZBB:r**",
"ZZZJPZPP33>>>>,+>#%%%%%%%%%%%%%%%$%%%%$$%%%%$$%%%%$$%%%%$$%%%%$$$$%%%%%%%%%%%%%%%># >,>>>>33ZZZZZZZ:",
"JJJBJPPFw3>>>+>>>>%%%%%%%%%%%%%%$$%%$$$$%%%%$$$$$$$$$$$$$$%%$$$$$$$$%%%%%%%%%%%%%>  ,>>>>>3wFFJAZZZZ",
"ZZJBJJJZF33>>>>  >,%%%%%%%%%%%%%$$%%$$$$%%$$$$$$$$$$$$$$$$%%$$$$$$$$%%%%%%%%%%%%%>  +>>>>33PLLPPPJZZ",
"ZZZJJJJJFS3, >,>>++>%%%%%%%%%%%%%%%%$%%%$$$$$$$$$$$$$$$$$$$$$%%%%%%%$%%%%%%%%%%%,  >>,> ,3SPPPPPPPJZ",
"ZZZZJJJZFP33>>>> >+,%%%%%%%%%%%%%%%%$%%$$$$$$$$$$$$$$$$$$$$$$%%%%%%%$%%%%%%%%%%%, > >>>>33JPPPPPLFZZ",
"ZZZZJJJZPPP3, >,> >>,%%%%%%%%$$$%$$%%$$$$$$$$$$$$$$$$$$$$$$$$$$%%%%$$$%%%%%%%%%,>> >,> ,3JJJJJJZZZZZ",
"ZZZZJJJJPJF33>>>3+,>,%%%%%%%%$$$$$%%$$$$$$$$$$$$$$$$$$$$$$$$$$$$%%%$$$%%%%%%%%%,>,+3>>>33JJJJJZZZZZZ",
"ZZZZJJJJJFFJ3,> ,+ + >%%%%%%%%%%%%%$$$$$$$$$$$$$$$$$$$$$$$$$$$$$$%%%%%%%%%%%%%,>> >, +< JJJJJJZZZZZZ",
"ZZZZJJJJZJFZv3, ,3   >%%%%%%%%$%%%$$$$$$$$$$$$$$$$$$$$$$$$$$$$$$$$%%%%$%%%%%%%,>  3, , BJJJJJJZZZZZZ",
"ZZZZZJJJZZJB:13> 3 +  #%%%%%$$$$%%$$$$$$$$$$$$$$$$$$$$$$$$$$$$$$$$%%$$$$%%%%%# >  3 >3 MJJJBFZZZZZZZ",
"ZZZZZBZJZZBB:-3, ,>   ,%%%%%$$$$%$$$$$$$$$$$$$$$$$$$$$$$$$$$$$$$$$$%$$$$%%%%%>    > , %vZZZbZZZZZZZZ",
"BZ77ZBZJJFBB;-11,,>  +,%%%%%$%%%$$$$$$$$$$$$$$$$$$$$$$$$$$$$$$$$$$$$$%%%$$%%%,   >,,3 %vZZZbZZZZZZZZ",
"BB.7ZCJJJZZB;%%1,>+, >,%%%%%$$%$$$$$$$$$$$$$$$$$$$$$$$$$$$$$$$$$$$$$$%%%$$$%%,  ,+>,, %vZZZbZZZZZBBB",
"B0.9ZZZBCZZB;-%11> >>>,%%$%$%%$$$$$$$$$$$$$$$$$$$$$$$$$$$$$$$$$$$$$$$$%%%$%%%,>>> >1 %-vZAZZZZZZBBBB",
"B.779ZZBBZBb=-%,3, +>>,%%$%%%$$$$$$$$$$$$$$$$$$$$$$$$$$$$$$$$$$$$$$$$$$%%%%%%,>>+ ,3 %-vAZZZZZZBBBBB",
"B.779ZZZZBBu=-,>3  >>>,%$$%%%$$$$$$$$$$$$$$$$$$$$$$$$$$$$$$$$$$$$$$$$$$%%%%%%,>>>  1,,-vZZZZAZZBBBBB",
"Bo7770ZZBBBB=,>>,> >>,,%$$%%$$$$$$$$$$$$$$$$$$$$$$$$$$$$$$$$$$$$$$$$$$$$%%%%%,,>>  ,,,,vZZZZAZZBBBBB",
"B7.777ZBBBBB4,,,>   >>,%$%%%$$$$$$$$$$$$$$$$$$$$$$$$$$$$$$$$$$$$$$$$$$$$$$%%%,>> + >,>,4ZZZZZZZBBBBB",
"BB..77BBBBBB,,,> >> >>,%$$%$$$$$$$$$$$$$$$$$$$$$$$$$$$$$$$$$$$$$$$$$$$$$$%%%%,>> >  >>,,bbZZZbZoBBbM",
"BBB..7bBBBB2>>, >3> ,,%%%%%$$$$$$$$$$$$$$$$$$$$$$$$$$$$$$$$$$$$$$$$$$$$$$$%%%%,3 >3> > >2bruuuM9bBbb",
"BBBB.7vbBBB>>,> >>>>,>%%%%$$$$$$$$$$$$$$$$$$$$$$$$$$$$$$$$$$$$$$$$$$$$$$$$%%%%>,>>>  >,+>BBBbb77.bMB",
"BBBBb>pbbB,>   ++>>,1>%%%%$$$$$$$$$$$$$$$$$$$$$$$$$$$$$$$$$$$$$$$$$$$$$$$$$%%%>,,>>>>   >,bvvb77O7.7",
"BBBBMb>bbM>>+ ++>>>,1%%%%$$$$$$$$$$$$$$$$$$$$$$$$$$$$$$$$$$$$$$$$$$$$$$$$$$%%%%,,>>>>> +>>bvvb7.>..B",
"MBBBBb>bv>>>   +>>3>3%%%%$$$$$$$$$$$$$$$$$$$$$$$$$$$$$$$$$$$$$$$$$$$$$$$$$$$%%%3, +>>   ++>bvb7 >BBB",
"MMMMB >>M>>  ++>+>>>#$%%%$$$$$$$$$$$$$$$$$$$$$$$$$$$$$$$$$$$$$$$$$$$$$$$$$$$%%%#, >+>++  >>BBB> vvbB",
"MMMMM >>+>  >>>>>,>,%$$$%$$$$$$$$$$$$$$$$$$$$$$$$$$$$$$$$$$$$$$$$$$$$$$$$$$%%$%%> ,>>+>>  >>BB BvvvM",
"MMMMM > >>  >>>+>,,%$$$$$$$$$$$$$$$$$$$$$$$$$$$$$$$$$$$$$$$$$$$$$$$$$$$$$$$$$$%%%, ++,>>  >>4  MvvvM",
"vvMMMM> ,   >>++,1>%$%%$$$$$$$$$$$$$$$$$$$$$$$$$$$$$$$$$$$$$$$$$$$$$$$$$$$$$$$$%%, >  >>+  ,> MMMbMM",
"vvMMMM+ > +>+>+,,,>%%$%%$$$$$$$$$$$$$$$$$$$$$$$$$$$$$$$$$$$$$$$$$$$$$$$$$$$$$$$%%, ,, >>>> +>>vMvvnM",
"MvMMvv>    >>+>3>>,%%%%%$$$$$$$$$$$$$$$$$$$$$$$$$$$$$$$$$$$$$$$$$$$$$$$$$$$$$$%$%, >3>+>>>  ,>uMvvtt",
"**:::>>> +++>+>, >>%%%%$$$$$$$$$$$$$$$$$$$$$$$$$$$$$$$$$$$$$$$$$$$$$$$$$$$$$$$%%%,  ,>+>>++ >>>MMvtt",
"q****>,   > >+>3  >%%$$$$$$$$$$$$$$$$$$$$$$$$$$$$$$$$$$$$$$$$$$$$$$$$$$$$$$$$%%%%>> 3>+> >>  >+lvu:*",
"nZZZ>>>  +> >+33 >>%%$$$$$$$$$$$$$$$$$$$$$$$$$$$$$$$$$$$$$$$$$$$$$$$$$$$$$$$$%%%%>>  3+>>>+> >>>****",
"ZJJF>, > >+ >+3, >>%%%%$$$$$$$$$$$$$$$$$$$$$$$$$$$$$$$$$$$$$$$$$$$$$$$$$$$$$$%%%%>>  3+>>+>>> ,>BBBB",
"JZZ<+>   >> >+,, >>%%%%$$$$$$$$$$$$$$$$$$$$$$$$$$$$$$$$$$$$$$$$$$$$$$$$$$$$$$%%%%>>>, +>>>>>  +>>BZZ",
"JZZ+++ > >> ++,,>>>%%%%$$$$$$$$$$$$$$$$$$$$$$$$$$$$$$$$$$$$$$$$$$$$$$$$$$$$$$%%$%>>>, ++,>>>>   >JFF",
"ZZZ> +>>>>> +>,>>>>%%%$$$$$$$$$$$$$$$$$$$$$$$$$$$$$$$$$$$$$$$$$$$$$$$$$$$$$$$$%%%>>>> >+,>>>>>  >LZZ",
"ZZ2>    >>, +>>>,>>%%%$$$$$$$$$$$$$$$$$$$$$$$$$$$$$$$$$$$$$$$$$$$$$$$$$$$$$$$$%%$>>,> ,+ ,>>>   >2ZZ",
"MM,>     >,  ,>+, >>%%$$$$$$$$$$$$$$$$$$$$$$$$$$$$$$$$$$$$$$$$$$$$$$$$$$$$$$$$%$+> >>>   ,>++   >,ZM",
"vb,> >+ +33, ,>>> ,+$$$$$$$$$$$$$$$$$$$$$$$$$$$$$$$$$$$$$$$$$$$$$$$$$$$$$$$$$$%%>, > >   33+>+> >,MM",
"bb,> >> >3+> >>>> ,+$$%$$$$$$$$$$$$$$$$$$$$$$$$$$$$$$$$$$$$$$$$$$$$$$$$$$$$$$%%% > > >   33>+>> >,MM",
"bb,  >+>33 >+>>>> ,>,%%$$$$$$$$$$$$$$$$$$$$$$$$$$$$$$$$$$$$$$$$$$$$$$$$$$$$$$%%, > > > +> 33>>>  ,MM",
"bb,  > > 3 >+>>3>>,>,%%%$$$$$$$$$$$$$$$$$$$$$$$$$$$$$$$$$$$$$$$$$$$$$$$$$$$$%%%, > > > +> 33>>>  ,MM"
};
