/* XPM */
static char *d750e982a40c4e81db5807f62300fbf0a1rkqSsQyzPG3LCF[] = {
/* columns rows colors chars-per-pixel */
"100 100 47 1 ",
"  c #100F0E",
". c #12110F",
"X c #161612",
"o c #181714",
"O c #171813",
"+ c #1B1B16",
"@ c #1E1D18",
"# c #211E17",
"$ c #201F1B",
"% c #1E221A",
"& c #232317",
"* c #24241E",
"= c #28271E",
"- c #26281D",
"; c #2A2A1D",
": c #2D2C1C",
"> c #2C2D1E",
", c #322F1E",
"< c #262620",
"1 c #272620",
"2 c #282721",
"3 c #242920",
"4 c #272A23",
"5 c #2B2923",
"6 c #2C2A21",
"7 c #2B2D23",
"8 c #2C2C23",
"9 c #2B2924",
"0 c #282B24",
"q c #2C2A24",
"w c #2A2D25",
"e c #2E2C26",
"r c #2F2D28",
"t c #302F20",
"y c #302E23",
"u c #312F29",
"i c #2E3024",
"p c #2F3029",
"a c #333123",
"s c #303027",
"d c #343227",
"f c #32302A",
"g c #35332A",
"h c #363428",
"j c #34322C",
"k c #36342E",
"l c #393731",
/* pixels */
"222222255559ee@oo@52222222o@22222222222225eee@o222222221**222259eeoeeeeeoeeeeee22qeeeeeeeeeeeeeeeeee",
"2222222225555eeeooo2222222o@22221****22225eee@o22222211***1;;255eeoeeeeeoqeeee22eeeq5555eeeeeeeeeeee",
"2222222***22555eee+oo22222o@2222****&*22255ee@o22222211***1-;555eeXoeee@XXeee**9eee55255eeeeeeeeeeee",
"2222222***222225522*oo+222o@*1222***2222255ee+o22***221**11*1255eeX.eee+X.*5*55555552*55eeeq5eeeeeee",
"22222222**22222222222+o++o.+1*222***22****55qo@22*****2222***225eeoX@e*o5+o5555***221525qe55*25eeeee",
"2222222222222222222222&oo..o1*2*22&@*****55e@o@522****22221*%*225@oeo@o@e@ooooooo@@222555525225eeeee",
"*22***2*222222**2222112Xoo.o@52*222222*&555e+Xo@2222**25551***525o5ek@oeffX.o@5e*oooo22*55222*q55555",
"*1*****2**2*****2222112oo+eoo++*@@@@+225555@..o+@22111;::;--;;;55oeflk Xooo@eeeeeee@@o@2255525555555",
"*22****1**2****2222222@o@eee$ooooooo+@255q5oo+oo@@211-;::;-**;;5*offj9..o@eeeeeeeeeee@@o@22222222222",
"22221*22**2***2222222@o@&eeeeeeeeee$o+o55eoo@e5eoo@@1-;-:1***-55+o@sffo2eeeeuffffffeeee@o@2222222*@@",
"@@@@ooooXooo@2222222@o@@eeffeeeeeeeeeoooooo@eeee@@.+@$@-211***55X @&&ooeeeffffffffkkfeee@@o@2222@ooo",
"++XXo+$222@oooo@22+oo+eefffffffffeeeeX.oo@e2eeeeeo+.+ooOo1-;*55o. .oooeeufffffffffkkkkeeee@oooooo+2@",
"+X.o@5eeeeeee2ooooo+@eukkkffjkkffffee+.**eeeffffeoo*ee5u*oo+*@oo@ee*XX@fffffffffffkkkkkreeeeeeqeeeee",
"9+oo@eeeeffeeeee222eefkkkkffkkkkkkff9@oe22ffkkkff@$eeeffff*oXo+eee999$o@@eeeeeeeeefkkkkffeeffueeeeff",
"ffo@eefffkkkeeeeeefffffkkkffkkkkkkkf99oe4*1ekkkkf@*fffjffff*.oeeee95:81o@@eeeeeeeeeukkkfuffkkkkkffff",
"ff+@uffffkkkffffffffffffjffffkkkkkk9f5o54*49effkfofffffkkkkfoeeefe4-t895@o@q95eee999fkfff2fkkkkkkfuu",
"ff++fffffjkkfffffffffffffffffffefj95f9o&;;*4effkfo@ffffffff@@eeffew7sefw55oo9999e999efffeeffkkkffeee",
"ff@+ffffffffffffffffffffffffffferf9ff9o@*;:55eekuX+@ffffff@@*efffepfdsskef5@o+999999eeqee9eeerffeeee",
"ff@9ffffffffffe11eeeeeeeeffffffeeefff9o&::;55eef9..oo@@@@++@efffffrjssrreg55@oo9999ee99eeeeeeeeeeeee",
"ff@9ffffffeeeeee1eeeeeeeeerfffff9ekfe9O&5:4452effX+@oooooXX+effffeettt44rs94eeoo2999e2*22eeeee99eeee",
"ee@9ffffeeeeeeeeeeeeeeeeeeeeefff9fkeefO%555*5eeffo@ee*9eeq+oeffffeeetee-ww74eee@o599**ee22eee999eeee",
"ee@9ffeeeeeeeeeeeeeeeeeeeeeeeef99feefso%1**65eeffoeee544ee5o+fffeeeeeeee944wkeee@o5944999**999449999",
"e9@9eeeeeeeee1eeeeeeeeeeeeeeeee5ff9kfsO%**;65eeffoe9ee44f95@o@ffeeee5556e44ahgteeoo:-154469***999999",
"99@1eeeeeeeee1eeeeeeeeeeeeeeee11ef2eeeo%4*555eefuoet:8*wef55eo@feee55555565:::eteqo:;&****5**$$**599",
"99@1eeeeeeeee555eeeeeeeeeeeeee1eeeeeeeo@4*555eefeoea:59fpp45eeo@ee55555556e::7efee@o&&*5*&*4499****5",
"95+eeeeeeeeee511eeeeeeeeeee555eeeeeeeeo@51155eff$oese*ess588e99ooe555555556e:9ekfeeo@*55*-*449955555",
"55+555225eeeee51eeeeeeeeeee555eeeeeeeeo@51155eufo@f9995t6885we9eoo552255555qerfkffeeo*11*%*511455555",
"55+55521159eeeeeeeeeeeeeeeee55eeeee955oe51555eefo@feeet,,tseefffeo@222*25555eqku9ffeo%--;**111155555",
"55+5551115559eeeeeeeeeeee99eee5255555@oe55555eefo@eeeet,,tes87rkfeo@222*5555e2**fffeo&;;:;****555555",
"55oo*111155555eeeeeeeeeee949951155555@@555555eefo@eeeeet,ee68*wkkf*o@2122225222ffff5X@;:::11**155555",
"5+Xo@1**155555514e9455555511151151111o@5222555e2o@ee55555q5;&*kkkkf$+**222**ee2fff5*.oooooo@**155555",
"@ooXo11111155551155155***5511551**11++55222555e2o@q55555525559ukkkkeo@*22**55*2fff5XX@oo#+oooOoo@@*1",
"++o+oo1111111115555555***51155****11o@112225*2*eo@22255552555eeefkkk$o@*2*525*efff9o+*55ee2eee@ooooo",
"e2ee++o11***1*151115;=1*1111211*1*1o@111222****eo@2222**5252555eefkkf$@*2*55*5ffffoo555eeee2eeeeeeee",
"9922e2+o11**1**15115;***5*1*111111@o+211222***55o@@22****522*55eeekjf*o@2*2*5effffoeeffffffkeee99992",
"ff92ee5+o11***1111*15***&*%*1111+o.Xo22122*@*225ooo+*2**2212*25eeeffff$@2*2*5efff@o2eeeffffkkke992q2",
"ee9effeeoo1***11-;111*%***111+ooo+ooo@2222*2222+..Xoooo@222*555eeeefeeo@2*2*2eufeo@99eeeeefkkkkeeeee",
"999eeeueeoo1****;***%**%*%&1oo@@ee2e@o@222*222@oXo+@@@oooo*2255eeeeeqeo@2**25ee5eo2999eeeeeeefreeeee",
"e9eeeeee99o+1*%*-****@%%%%+o@@eeeeeeeoo222*2@oo@@5eeee*@@ooo222qeeeeqeo@2*255e555o29999eee99eeeeeeee",
"eeeeeee995@o**%*%%***-&**oo@eeeefffueeoo22*ooo@2eeeeeeeeee5oo@222eeeeeo@22255555@@559229qe99eee2eeee",
"99qeeeq955@.Xo%***%**-&*Oo5qetfkkkkkfu@..+oo@@eeeeffffueeeeq5o@21212qoX++2222222o@5551199922eq9*9999",
"999999555*+...oOooOO@@@ooe95eeffkkkkkfoo.X+@qeeufffffffffeeee5o@222*+..X+@22222@o+5***$**522@@**9999",
"999995555+Xooo**@@OOo.Xoeefweefffkkfuu@..+@eeeffffffkkfffffeee9o@+++oo@+oo+@@oo..++*51115*$$@*299999",
"99255555+Xo@9*49ee99@.X19ffe8tfffeeee@oo@@4eufffffjkkkkffffffee@oooo@eee22oooo+oXoooo+11***521299995",
"552255@oo+ee98wp,:8e@o:-4eee8teeee555oo@%44fffffkkkkkkkjffffffe2o.X@*eee2eeeeeee1eq@@ooooo5551152115",
"@@5@@oXoqeffsss:,:su++:-456eeteeq522@o@449wfffffkkkkkkkkkkkkff92o@oeeeffffueeeeeeeeeeee*@ooo@@555155",
"oooo..o1ffffesfe;;9@O*4w**5q55555222O@499efeeffffkkkjkkkkkkkfff2@@$eeffffkkkkfffeeeeeeeee2@o.o+@@@+o",
"jkk+oo+5eeeeeess--9O@**e41*55555222o@*49effeefffffkkffkkjkkkkfff@oqeffffkkkkkfffffkkkeeee2eooXoooo+@",
"kkkk++o5555eee8;;9@o1*4e4*45555222o@1*5ufffffffffffffffkffkkkfff@oefffffkkkkkfffffkeeeke2ee+oo*eeefe",
"fffeeoo+5555554;;qo@5555441122112o+--5eefeeeffffffffffffffkkffff@offffffkkkkfffeefqekeke9reooeee8akk",
"fffeeX..1555551112o5e55;1211221@o@5--wfeeeeefeeeeeeeefffffffffff@oueeffffjffeeeee2e9eeeeff@of9ee;8ff",
"e555+o .o@2115515+o551-1111122oo@456-4feffe5eeeeeeeeeeeeffffkkkf@oeeeeeufffeeeee2222ekkkkf@o955551rf",
"5551@oo@Oo@111111o@12112222@ooo9e48844fffueeeeeeeeeeeeeeeeffkkkf+oeeeeeeffeeee2**2eeefkkkfo@11151155",
"111@oe944eo@@111@.o*2**@+oooo@*4ee554effueeeeeeeeeeeeeeeeeeefff9+oeeeeeeeuee222eeeeeqfkkkf*+@%*=**15",
"11ooeee445q@o@@1+ oooooooo+@*1**fe9wwfffeeeeeeeeeeeeeeeeeeeeff99@oeeeeeeeeq555qeeeeeeffkff.Xo@%***=1",
"ooo@eekr5**4*@Ooo ..X@*1ee9955%44*wweffeeeeeeeeeeeeeeeeeeeeee9fe@oeeeeeee55555555eeefffffX.XoOOOoo@1",
"o@eekekjw;;9155ooo@@@44**e445ew@@*eeffueeeeeeeeeeeeeeeeeeeee52fe@oeeqeee5555555555eeffffo+ooee99@&oo",
"eeefkekke49ew*;-o@e5119**9*-4fe**-77ffeeeeeeeeeeeeeeeeeeeeee22ee+o5555555555555555eefffo@e2eeeeeeee@",
"fff9fkkuut5k8-;&Oqe559esss444fff9e77feeeeeeeeeeeeq5555eeeeeeq2e9+o@555555555555555eeef+oeeeffffreeee",
"eef9fffeutqgt*4OOe22529seew4*fffffeefeeeeeeeee955555555555e5555*$o@555555555555445qee@oeeffkkkkkkfee",
"eeefffffuggksswoe29eesfss59*fffeefff55eeeeeeq555555555555555*55*5@o5552222552254455qe@$efffkkkkkkkfe",
"eeeefffeukkfee@oeuf5ssffsq9efffeefff55eeeee555555555555555***55*5@o222222222*25445555@$ffffkkkkkjuee",
"eeeefffekkkfw9O@efff8eeeee55eeeffffeeeeeeq5555555555555****552255@o22222222****115552oeffffffffeeeee",
"eeeeffffkfuuw%oeffeeeeeeeeeeeeeeeeeeeeee5555555555555555555222222@o22**22******--255*offffffffeeeeee",
"eeeefffffuffeO+ffeee55eeeeeeeeeeeeeeeee5555555555555555555***2222@o22**22****=5--125@offffffffeeeeee",
"eeeeffffefueeo@feeee55eeeeeeeeeeeeeee55555555555555555522****222*@o22**22**22;****45+offffffffeeeeee",
"eeeeefffeef9%ofueeeeeqq555eeeeeeeeeq5555555555555552222******222*@o2222222222**&%*45offffff9ueeeeeee",
"eeeee9efee99@ofeeeeee55555555eeeee555522222222555522222*****2222*@o2222222::2*%***1@offeeee2eeeeeeee",
"9eeee9effu99@oeeeeee5555555555qe55552222222222222222222**2222222*@o22222225;;--;*1%Oeeeeeee2eeeeeeee",
"99eeeqfffee9@$eeeee955555555555555522222222222222222222212222222*oo2222225-;;*-;14OOfeeeeee2eeeee999",
"99eeeee9qee9+$eee555555555555555552222222222222222222222222222222o522222*=;;;*-;@@o4eeeeereeeeee9999",
"999eeee99e92o*eq555522222225555552222**2222222222222222222222222oXooooo++*;&&51@@o9eeeeereeeeee99999",
"9999eeeee99*o5e5555522222222222222*22**2222222222222222222222222o@@@@@@@o+*%*5@@O1*99eeeeeeeree99999",
"99999eee9999o$22222522222222222222*221222**2222222222**22222222@o@e1455e@@O115@o**415*eeeeeeree99999",
"99999ee99999@@2222222222222222222*222222&**2222222222**22222121o@eeeeqffe4%O4@O***4**$22eeeeeee99999",
"99999e999999@@222222222222*2****@*******&**22222222222**222211o@eefffjkf;;;+.o%*;*4*@1e222eee2e99925",
"999999299999@o222222222***@****@@***2222***222222222221*22222oo+efffffki:*=+.X*&&**@*99ee2****992922",
"9999551299955o@22222222**@*222**222222222**22222222222212222+oX@efffuefk:*=*o@&&*1**9999999922292259",
"999922*229555o@222222222$@*****2222222222222222222222222222@+.o+ffeeeeeew444o*@&***99992222112292999",
"9999521225555++2222222**2222***22222222222222**22222222222@+ooX+eeeeeeee9*4@o;@@%4999992222112299999",
"5999919115555ooo*2222**22222**2**222222222*****222222222@@o$e@@o@5555555444@@&***;599991119212599999",
"555599255555*o..+@22**2222222@@oooo++++222****2222221@@oo$eeeee@o555555555ooo&:;;-55559999*999991119",
"5555555555555o++oo@@+@@++@@+oooo@@@@@@oooo@@@@@@@@ooooo$eeffffe2@o*555555oX..+55***5555555*199991115",
"555555555555@@@9*+OOoooo..Xo@1eqqeee552*@ooXXXXXoo+eeeeeffffkee52o.+@@+XX@@@ooo6***5555*15*555551115",
"11555555551@o@*4-;-;ee5@X o+eeeeeufffeeuee2o. .o+eee5qeffff999uk9o.Xoo..o@eff+oo@*5555**&**555555155",
"11555555*11o%--58::85eeeoX+eeeffeq5rfkkkj5e@@.o+eeeeee5eff99uuukk2o2effo+1rffeeoo+o155&&&-***1151145",
"515511111@o@1:857fa85que$o@eeff5555eefkkkeue@o@eeefffeeeuu9fueukkfo*ukj@ooqfff+XXooooXo@@;*****511*-",
"Oo@@@@@+oo999ee8fgse5uufe@oefff5555eeefkeeke@oeeefffffeeee2eeffkff@offuo.ooo@ooX+*@@@@@ooo+@***551*-",
"%Ooooooofffe9esfssge555eefoqfffe55eeeeefqkkfeoeffffffeeeeeeeeeffff@X+ooo+e*oXoeeeeee55tt&@@ooo&;1*@o",
"4eeeeeuffseefss888seeeeee@o@fffeeeeeeee299999o9fffffeeeeeeeeeeefffo.oo@@eeqooeeeeee8868ttee*%@OOOOoO",
"effuweeffseeff6555eeeeeeeX.offfeeq555e2222fefofffffee555eeeeeeefff@X@2eeffeo$eekkkkg8eia,ee594499999",
"feee99eeees9ee5==eeqqeeeo. o@feq52222*$1eeeeeoffffeee555eeeeeeefufeoeeffff@oeefkkkkkw97hskggsete9wee",
"feeeeeeee9ee5555555555@oXo.X+fe55**22555qe55eofeeeee2*252255eeeeffeoefffffo$efffkkke947dfkgggsskfffu",
"eeeeeeeeeeee=22555555ooooooX+e552***25555e55eo@e5ee5225222555eeeff@ofeeee@oeffffeee55pjfffkue5ekkjee",
"eeeeqqqee55662255555ooquu@@o@5252**2222555eee+o55e555522255555eeufo+eeeeeoeffreeeeee5eeeeeee55effuee",
"5555555555555555555oo5uuuf5o@5222222***25555e*oeq55555522555555eefoeeeee@offeeeeeeee5qe22ee5225eeee5",
"222222255555555555oo@52eeuuo@5222222***222225eoeq55552222*22555eefoe555eooeeee555556=***eeee65qeeq55",
"222222222255555@@oo@2222ee2o@22222222*22222225oe555222222***5555e@o55555oee5522255*****25eeeeeq55555",
"2222222222255*@@o*222222222o@22222222222222225oq5552222222**25555+o52255o555522*****5522555555555555",
"2222222222225@@@52222222222o@22222222222222225o955522222222225555o522225o5555***55555555555555555555"
};
